# xmcd
#
# Track frame offsets: 
#        150
#        14455
#        27018
#        44555
#        61814
#        75575
#        93742
#        110774
#        137844
#        154305
#        165905
#        184097
#        201093
#        224040
#        242776
#        271827
#        287990
#
# Disc length: 4029 seconds
#
# Revision: 7
# Processed by: cddbd v1.5.1PL2 Copyright (c) Steve Scherf et al.
# Submitted via: ExactAudioCopy v0.95b4
#
DISCID=f80fbb11
DTITLE=Tom Russell - The Long Way Around
DYEAR=1997
DGENRE=Country
TTITLE0=St. Olav's Gate with Nanci Griffith
TTITLE1=Outbound Plane with Nanci Griffith
TTITLE2=Big Water with Iris DeMent
TTITLE3=Beyond The Blues with Jimmy Dale Gilmore
TTITLE4=Spanish Burgundy
TTITLE5=U.S. Steel
TTITLE6=Walkin' On The Moon with Katy Moffatt
TTITLE7=The Angel of Lyon Live in St. Louis
TTITLE8=Veteran's Day Live
TTITLE9=The Eyes of Roberto Duran Live
TTITLE10=Blue Wing Live with Dave Alvin
TTITLE11=Haley's Comet Live with Dave Alvin and Katy Moffatt
TTITLE12=Manzanar Live with Katy Moffatt
TTITLE13=Mineral Wells Live with Katy Moffatt
TTITLE14=Gallo Del Cielo Live with Katy Moffatt
TTITLE15=The Road To Bayamon Live with Katy Moffatt
TTITLE16=Box Of Visions Duet with Iris DeMent
EXTD=
EXTT0=with Nanci Griffith
EXTT1=with Nanci Griffith
EXTT2=with Iris DeMent
EXTT3=with Jimmie Dale Gilmore
EXTT4=
EXTT5=
EXTT6=with Katy Moffatt
EXTT7=live in St. Louis
EXTT8=live
EXTT9=live
EXTT10=live with Dave Alvin
EXTT11=live with Dave Alvin, Katy Moffatt
EXTT12=live with Katy Moffatt
EXTT13=live with Katy Moffatt
EXTT14=live with Katy Moffatt
EXTT15=live with Katy Moffatt
EXTT16=duet with Iris DeMent
PLAYORDER=
